<?xml version="1.0" standalone="no"?>
<!DOCTYPE svg PUBLIC "-//W3C//DTD SVG 20010904//EN"
 "http://www.w3.org/TR/2001/REC-SVG-20010904/DTD/svg10.dtd">
<svg version="1.0" xmlns="http://www.w3.org/2000/svg"
 width="512.000000pt" height="512.000000pt" viewBox="0 0 512.000000 512.000000"
 preserveAspectRatio="xMidYMid meet">
<metadata>
Created by potrace 1.14, written by Peter Selinger 2001-2017
</metadata>
<g transform="translate(0.000000,512.000000) scale(0.100000,-0.100000)"
fill="#000000" stroke="none">
<path d="M750 2560 l0 -2560 1469 0 c1589 0 1545 -1 1681 53 215 87 363 248
444 482 21 60 21 61 24 2323 l2 2262 -1810 0 -1810 0 0 -2560z m3410 388 c0
-1949 0 -1963 -20 -1931 -52 86 -190 45 -190 -57 0 -102 137 -143 191 -57 l20
32 -4 -145 c-3 -80 -8 -155 -12 -167 l-7 -23 -25 20 c-31 24 -64 25 -108 5
-62 -30 -75 -113 -25 -164 17 -16 40 -31 53 -33 20 -3 18 -7 -25 -50 -51 -52
-68 -59 -68 -29 0 10 -11 30 -25 44 -87 86 -223 -15 -166 -124 l20 -37 -27 -6
c-15 -3 -90 -9 -167 -12 -131 -5 -138 -4 -113 11 31 18 58 63 58 97 0 13 -9
37 -20 55 -52 85 -190 46 -190 -55 0 -44 14 -69 53 -92 32 -20 24 -20 -1185
-20 l-1218 0 0 2350 0 2350 1600 0 1600 0 0 -1962z"/>
<path d="M1170 3625 l0 -1065 1390 0 1390 0 0 1065 0 1065 -1390 0 -1390 0 0
-1065z m2560 0 l0 -855 -1170 0 -1170 0 0 855 0 855 1170 0 1170 0 0 -855z"/>
<path d="M1388 2243 l-3 -108 -108 -3 -107 -3 2 -317 3 -317 108 -3 107 -3 0
-104 0 -105 320 0 320 0 0 105 0 105 105 0 105 0 0 320 0 320 -105 0 -104 0
-3 108 -3 107 -317 3 -317 2 -3 -107z"/>
<path d="M3569 2340 c-146 -25 -250 -147 -257 -301 -4 -67 0 -85 23 -137 33
-74 92 -133 168 -168 51 -23 69 -26 135 -22 178 8 304 137 305 312 1 127 -64
231 -176 285 -70 33 -130 43 -198 31z"/>
<path d="M2883 1902 c-265 -95 -288 -465 -35 -589 76 -38 191 -40 267 -5 162
74 231 258 161 426 -23 55 -100 131 -159 156 -71 31 -167 36 -234 12z"/>
<path d="M2061 819 c-51 -51 -39 -134 24 -164 46 -21 264 -21 310 0 63 30 75
113 24 164 l-31 31 -148 0 -148 0 -31 -31z"/>
<path d="M2701 819 c-51 -51 -39 -134 24 -164 46 -21 264 -21 310 0 63 30 75
113 24 164 l-31 31 -148 0 -148 0 -31 -31z"/>
<path d="M3781 834 c-81 -57 -40 -194 59 -194 42 0 88 35 99 76 19 70 -28 134
-99 134 -20 0 -46 -7 -59 -16z"/>
<path d="M3590 633 c-30 -11 -60 -47 -66 -79 -8 -41 18 -97 52 -113 96 -44
187 47 143 143 -18 40 -85 65 -129 49z"/>
</g>
</svg>
